/* XPM */
static char *close_active[] = {
/* columns rows colors chars-per-pixel */
"15 16 21 1 ",
"  c #434C5E",
". c #5E6575",
"X c #5E6675",
"o c #606776",
"O c #676E7C",
"+ c #676E7D",
"@ c #676F7D",
"# c #68707E",
"$ c #69707E",
"% c #707684",
"& c #707785",
"* c #767D8A",
"= c #7B818E",
"- c #7C838F",
"; c #838995",
": c #B1B5BD",
"> c #B2B5BD",
", c #B4B8BF",
"< c #B5B8BF",
"1 c #CBCDD3",
"2 c #D3D8E0",
/* pixels */
"222222222222222",
"               ",
"               ",
"               ",
"               ",
"               ",
"     %$ $%     ",
"     .<;<.     ",
"      =1-      ",
"     +>*>+     ",
"     +o o+     ",
"               ",
"               ",
"               ",
"               ",
"               "
};
