/* XPM */
static char *close_inactive[] = {
/* columns rows colors chars-per-pixel */
"15 16 17 1 ",
"  c #434C5E",
". c #4F5868",
"X c #505869",
"o c #505969",
"O c #535C6C",
"+ c #545C6C",
"@ c #545D6D",
"# c #555D6D",
"$ c #586070",
"% c #5B6372",
"& c #5D6574",
"* c #5E6675",
"= c #616978",
"- c #777D8A",
"; c #787E8B",
": c #838894",
"> c #D3D8E0",
/* pixels */
">>>>>>>>>>>>>>>",
"               ",
"               ",
"               ",
"               ",
"               ",
"     $# #$     ",
"     .;=;o     ",
"      &:&      ",
"     O-$-#     ",
"     #o o#     ",
"               ",
"               ",
"               ",
"               ",
"               "
};
