/* XPM */
static char *close_pressed[] = {
/* columns rows colors chars-per-pixel */
"15 16 54 1 ",
"  c #434C5E",
". c #495163",
"X c #495264",
"o c #4A5264",
"O c #4A5365",
"+ c #4D5567",
"@ c #4D5667",
"# c #4E5668",
"$ c #4E5768",
"% c #535C6D",
"& c #5E6777",
"* c #5F6777",
"= c #626A7A",
"- c #636B7A",
"; c #666E7D",
": c #7D8592",
"> c #7E8593",
", c #7E8694",
"< c #7F8694",
"1 c #848C99",
"2 c #858C9A",
"3 c #8E95A2",
"4 c #8F96A3",
"5 c #9BA1AD",
"6 c #A2A9B4",
"7 c #A5ABB6",
"8 c #AAB0BB",
"9 c #ACB2BD",
"0 c #ADB3BE",
"q c #AEB4BE",
"w c #B1B6C1",
"e c #B1B7C2",
"r c #B2B7C2",
"t c #B9BFC9",
"y c #BABFC9",
"u c #BBC1CB",
"i c #BCC1CB",
"p c #BDC2CC",
"a c #BFC4CD",
"s c #BFC4CE",
"d c #BFC5CE",
"f c #C0C5CE",
"g c #C0C5CF",
"h c #C4C9D3",
"j c #C6CBD4",
"k c #C7CBD4",
"l c #C7CCD5",
"z c #CFD3DC",
"x c #CFD4DC",
"c c #D3D8E0",
"v c #E3E7EE",
"b c #E4E8EF",
"n c #E4E8F0",
"m c #E5E9F0",
/* pixels */
"ccccccccccccccc",
"               ",
"               ",
"    +3axa3#    ",
"   *xmmmmmz*   ",
"  #lmmmmmmml+  ",
"  2bmrtmtrmb2  ",
"  rmmk=5=kmmr  ",
"  ammm7.6mmma  ",
"  qmmi;8;umm9  ",
"  <vmihmhimv:  ",
"  ofmmmmmmmfo  ",
"   %avmmmva%   ",
"    o:9p9<o    ",
"               ",
"               "
};
