/* XPM */
static char *hide_prelight[] = {
/* columns rows colors chars-per-pixel */
"15 16 25 1 ",
"  c #434C5E",
". c #444D5F",
"X c #454E60",
"o c #464F60",
"O c #485062",
"+ c #485162",
"@ c #4D5667",
"# c #4E5768",
"$ c #505869",
"% c #505969",
"& c #555D6E",
"* c #565E6E",
"= c #586070",
"- c #596070",
"; c #586170",
": c #596071",
"> c #596171",
", c #5A6272",
"< c #5B6373",
"1 c #5F6776",
"2 c #636A79",
"3 c #6C7481",
"4 c #787E8B",
"5 c #BCC0C6",
"6 c #D3D8E0",
/* pixels */
"666666666666666",
"               ",
"               ",
"    X$<<<$X    ",
"   +<11111<+   ",
"  X<1111111<X  ",
"  #111111111#  ",
"  *111111111*  ",
"  <112333211<  ",
"  *114555411*  ",
"  @111111111@  ",
"  .<1111111<.  ",
"   X<11111<X   ",
"    .@*<*@.    ",
"               ",
"               "
};
