/* XPM */
static char *maximize_toggled_pressed[] = {
/* columns rows colors chars-per-pixel */
"15 16 35 1 ",
"  c #434C5E",
". c #454E60",
"X c #464F61",
"o c #474F61",
"O c #475061",
"+ c #495163",
"@ c #4C5566",
"# c #575F6F",
"$ c #57606F",
"% c #586070",
"& c #5A6171",
"* c #5A6272",
"= c #5D6574",
"- c #5E6575",
"; c #676E7D",
": c #686F7D",
"> c #686F7E",
", c #69707E",
"< c #69717F",
"1 c #6D7482",
"2 c #6E7582",
"3 c #6E7583",
"4 c #707785",
"5 c #717885",
"6 c #737A87",
"7 c #747A87",
"8 c #7A808D",
"9 c #7B818E",
"0 c #9095A0",
"q c #BABDC4",
"w c #C3C6CC",
"e c #C8CAD0",
"r c #CDCED4",
"t c #D3D5DA",
"y c #D3D8E0",
/* pixels */
"yyyyyyyyyyyyyyy",
"               ",
"               ",
"    X=272=O    ",
"   @6999996@   ",
"  O699999994X  ",
"  *999999999*  ",
"  <999wtw999<  ",
"  2999r0r9992  ",
"  >999qeq999>  ",
"  *999999999$  ",
"  X299999992X  ",
"   +2999992+   ",
"    X#;2;$X    ",
"               ",
"               "
};
