/* XPM */
static char *maximize_inactive[] = {
/* columns rows colors chars-per-pixel */
"15 16 12 1 ",
"  c #434C5E",
". c #475061",
"X c #495163",
"o c #525A6A",
"O c #545C6D",
"+ c #596171",
"@ c #686E7D",
"# c #6C7281",
"$ c #6F7583",
"% c #7A7F8C",
"& c #7D828F",
"* c #D3D8E0",
/* pixels */
"***************",
"               ",
"               ",
"               ",
"               ",
"               ",
"     X+++X     ",
"     O%@%O     ",
"     O# #O     ",
"     O&$&O     ",
"     .ooo.     ",
"               ",
"               ",
"               ",
"               ",
"               "
};
