/* XPM */
static char *maximize_prelight[] = {
/* columns rows colors chars-per-pixel */
"15 16 31 1 ",
"  c #434C5E",
". c #444D5F",
"X c #454E60",
"o c #464F60",
"O c #485062",
"+ c #485162",
"@ c #4D5667",
"# c #4E5768",
"$ c #505869",
"% c #505969",
"& c #555D6E",
"* c #565E6E",
"= c #586070",
"- c #596070",
"; c #586170",
": c #596071",
"> c #596171",
", c #5A6272",
"< c #5B6373",
"1 c #5F6776",
"2 c #666E7C",
"3 c #6A717F",
"4 c #7A808D",
"5 c #7F8591",
"6 c #878D98",
"7 c #A2A6AF",
"8 c #A9ADB6",
"9 c #AFB3BB",
"0 c #C3C6CB",
"q c #C8CAD0",
"w c #D3D8E0",
/* pixels */
"wwwwwwwwwwwwwww",
"               ",
"               ",
"    X$<<<$X    ",
"   +<11111<+   ",
"  X<1111111<X  ",
"  #113666311#  ",
"  *115070511*  ",
"  <115818511<  ",
"  *115q9q511*  ",
"  @112444211@  ",
"  .<1111111<.  ",
"   X<11111<X   ",
"    .@*<*@.    ",
"               ",
"               "
};
