/* XPM */
static char *menu_active[] = {
/* columns rows colors chars-per-pixel */
"20 20 133 2 ",
"   c None",
".  c #2F2147",
"X  c #2F2347",
"o  c #302147",
"O  c #312249",
"+  c #31224A",
"@  c #31234A",
"#  c #32224A",
"$  c #32234B",
"%  c #33234C",
"&  c #312B52",
"*  c #322C54",
"=  c #392851",
"-  c #3A2952",
";  c #373058",
":  c #31395F",
">  c #3F3263",
",  c #3E3464",
"<  c #3F3464",
"1  c #3F3465",
"2  c #3E3565",
"3  c #3F3566",
"4  c #3D3666",
"5  c #3D3766",
"6  c #3E3666",
"7  c #3E3766",
"8  c #3C3967",
"9  c #3C3A67",
"0  c #3C3C69",
"q  c #402F62",
"w  c #403063",
"e  c #403163",
"r  c #37456D",
"t  c #36466E",
"y  c #3B416A",
"u  c #39436C",
"i  c #3C406D",
"p  c #344A70",
"a  c #334E72",
"s  c #3B4A75",
"d  c #2E5677",
"f  c #2E5777",
"g  c #2F5777",
"h  c #2D5978",
"j  c #2E5978",
"k  c #2B5C79",
"l  c #2B5E7A",
"z  c #2A5E7B",
"x  c #2A5F7B",
"c  c #315174",
"v  c #325374",
"b  c #3A517A",
"n  c #39547D",
"m  c #27627C",
"M  c #27657E",
"N  c #2B617B",
"B  c #2B647D",
"V  c #365B81",
"C  c #375E83",
"Z  c #375E84",
"A  c #1F7D8F",
"S  c #2C6281",
"D  c #2D6282",
"F  c #2A6683",
"G  c #2C6786",
"H  c #256880",
"J  c #256A80",
"K  c #246C82",
"L  c #276F85",
"P  c #2A6884",
"I  c #2B6884",
"U  c #2C6885",
"Y  c #2D6987",
"T  c #2B6B88",
"R  c #2C6E8C",
"E  c #366287",
"W  c #366488",
"Q  c #237388",
"!  c #2A738E",
"~  c #2F708D",
"^  c #2B7591",
"/  c #2A7691",
"(  c #2B7793",
")  c #2F7594",
"_  c #277D94",
"`  c #2F7E9A",
"'  c #1D8393",
"]  c #1E8293",
"[  c #1C8495",
"{  c #1E8495",
"}  c #1D8797",
"|  c #1D8999",
" . c #1D8C9B",
".. c #1D8D9C",
"X. c #2A819B",
"o. c #2A869F",
"O. c #30839D",
"+. c #1F90A1",
"@. c #2F87A2",
"#. c #2D89A2",
"$. c #2D8DA7",
"%. c #2591A5",
"&. c #2095A7",
"*. c #2B97AF",
"=. c #2098A9",
"-. c #219AAB",
";. c #219CAD",
":. c #219CAE",
">. c #2898AE",
",. c #3097AE",
"<. c #229FB1",
"1. c #2B99B0",
"2. c #2A9DB4",
"3. c #2A9FB5",
"4. c #22A0B2",
"5. c #26A1B5",
"6. c #23A4B6",
"7. c #24A4B7",
"8. c #25A8BB",
"9. c #25A8BC",
"0. c #25A9BC",
"q. c #25A9BD",
"w. c #25AABD",
"e. c #25AABE",
"r. c #25ABBE",
"t. c #26ABBE",
"y. c #25ACBE",
"u. c #26ACBF",
"i. c #26ACC0",
"p. c #26ADC0",
"a. c #27ADC0",
"s. c #26AEC1",
"d. c #28AFC1",
/* pixels */
"                                        ",
"  - % % % % % % % % % % % % ; s.s.s.d.  ",
"  % : X.o.o.o.o.o.o.o.o.o.o.>.s.s.s.s.  ",
"  % ^ s.s.s.s.s.s.@.%.r.s.s.s.s.s.s.s.  ",
"  % ^ s.s.s.s.s.s.b d -.s.s.s.s.s.s.s.  ",
"  % ^ s.s.s.s.s.1.w 4 ' s.s.s.s.s.s.,.  ",
"  % ^ s.s.s.s.s.E q w z <.s.s.s.s.O.-   ",
"  % ^ s.s.s.s.5.4 h p 9 } s.s.s.s.^ %   ",
"  % ^ s.s.s.s.W a K ~ q z 4.s.s.s.^ %   ",
"  % ^ s.s.s.2.4 J 4 d t 9 } r.s.s.^ %   ",
"  % ^ s.s.s.Z u h 4 4 B q z :.s.s.^ %   ",
"  % ^ s.s.*.w y v Q 0 z 4 4 ' s.s.^ %   ",
"  % ^ s.s.n q > N  .V B 4 q d :.s.^ %   ",
"  % ^ s.$.q q 4 m +.C L 4 q < A u.^ @   ",
"  % ^ s.s t J } &.7.#. .5.) i v -.^ @   ",
"  % ^ 1._ ..6.r.r.r.8.r.s.s.r.` ' ! @   ",
"  % R s.r.s.s.s.r.s.s.s.s.s.s.s.r.T @   ",
"  % * D Y Y Y Y G F P P P P Y Y D & %   ",
"  @ @ @ @ @ @ @ @ @ . . o o @ @ @ @ @   ",
"                                        "
};
