/* XPM */
static char * title_4_inactive_xpm[] = {
"20 24 4 1",
" 	c None",
".	c #313744",
"+	c #313744",
"@	c #313744",
"...............     ",
".................   ",
"..................  ",
"................... ",
"................... ",
"....................",
"....................",
"....................",
"....................",
"....................",
"....................",
"....................",
"....................",
"....................",
"....................",
"....................",
"....................",
"++++++++++++++++++++",
"@@@@@@@@@@@@@@@@@@@@",
"@@@@@@@@@@@@@@@@@@@@",
"@@@@@@@@@@@@@@@@@@@@",
"@@@@@@@@@@@@@@@@@@@@",
"@@@@@@@@@@@@@@@@@@@@",
"@@@@@@@@@@@@@@@@@@@@"};
